# 3ds Max Wavefront OBJ Exporter v0.97b - (c)2007 guruware
# File Created: 14.11.2015 11:13:23

mtllib 3d-model.mtl

#
# object Componente_9_001
#

v  -0.0020 0.0000 19091.8809
v  19091.8789 0.0000 -0.0000
v  19091.8789 6000.0000 -0.0000
v  -0.0020 6000.0000 19091.8809
# 4 vertices

vn 0.7071 -0.0000 0.7071
# 1 vertex normals

vt -0.0240 -1.5966 0.0000
vt -0.0240 -1.9908 0.0000
vt 0.2096 -1.9908 0.0000
vt 0.2096 -1.5966 0.0000
# 4 texture coords

g Componente_9_001
usemtl wire_087224198
s off
f 1/1/1 2/2/1 3/3/1 4/4/1 
# 1 polygons

#
# object Componente_8_001
#

v  -4104.9063 51975.0000 1642.7422
v  624.2236 51975.0000 6371.8721
v  -3111.4214 51975.0000 10107.5176
v  -7840.5513 51975.0000 5378.3872
v  -3111.4214 60000.0000 10107.5176
v  624.2236 60000.0000 6371.8721
v  -4104.9063 60000.0000 1642.7422
v  -7840.5513 60000.0000 5378.3872
# 8 vertices

vn 0.0000 -1.0000 -0.0000
vn 0.0000 1.0000 -0.0000
vn -0.7071 0.0000 -0.7071
vn -0.7071 0.0000 0.7071
vn 0.7071 0.0000 0.7071
vn 0.7071 0.0000 -0.7071
# 6 vertex normals

vt 0.0000 0.0000 0.0000
vt 0.3655 0.5707 0.0000
vt 0.3843 0.5922 0.0000
vt 0.3612 0.6203 0.0000
vt 0.3424 0.5988 0.0000
vt -2.4908 1.0916 0.0000
vt -2.4909 1.0655 0.0000
vt -2.5981 1.0627 0.0000
vt -2.5981 1.0887 0.0000
vt -2.5622 1.0655 0.0000
vt -2.4930 1.0673 0.0000
vt -2.4970 1.0889 0.0000
vt -2.5662 1.0871 0.0000
vt -2.5397 1.3178 0.0000
vt -2.6089 1.3160 0.0000
vt -2.6049 1.2944 0.0000
vt -2.5356 1.2962 0.0000
# 17 texture coords

g Componente_8_001
usemtl wire_143224087
s off
f 5/5/2 6/5/2 7/5/2 8/5/2 
f 9/6/3 10/7/3 11/8/3 12/9/3 
f 5/10/4 8/11/4 12/12/4 11/13/4 
f 12/14/5 8/15/5 7/16/5 9/17/5 
f 7/11/6 6/10/6 10/13/6 9/12/6 
f 5/18/7 11/19/7 10/20/7 6/21/7 
# 6 polygons

#
# object Componente_7_001
#

v  -0.0020 0.0000 -19091.8867
v  -19091.8828 0.0000 -0.0059
v  -19091.8828 6000.0000 -0.0059
v  -0.0020 6000.0000 -19091.8867
# 4 vertices

vn -0.7071 -0.0000 -0.7071
# 1 vertex normals

vt 0.0000 0.0000 0.0000
vt 1.0000 -0.0000 0.0000
vt 1.0000 1.0000 0.0000
vt -0.0000 1.0000 0.0000
# 4 texture coords

g Componente_7_001
usemtl wire_224086086
s off
f 13/22/8 14/23/8 15/24/8 16/25/8 
# 1 polygons

#
# object Componente_6_001
#

v  -3181.9795 29421.9531 15909.9004
v  -1266.1338 29421.9531 13994.0547
v  -13994.0557 29421.9531 1266.1328
v  -15909.9023 29421.9531 3181.9790
v  -1266.1338 51975.0000 13994.0547
v  3490.1396 51975.0000 9237.7813
v  -9237.7813 51975.0000 -3490.1411
v  -13994.0557 51975.0000 1266.1328
v  9545.9404 6000.0000 3181.9795
v  0.0010 6000.0000 19091.8809
v  19091.8828 6000.0000 -0.0020
v  -3181.9805 6000.0000 -9545.9424
v  0.0010 6000.0000 -19091.8848
v  -19091.8828 6000.0000 -0.0015
v  -15909.9023 6000.0000 3181.9790
v  -3181.9795 6000.0000 15909.9004
v  3490.1396 54000.0000 9237.7813
v  9545.9404 54000.0000 3181.9795
v  -3181.9805 54000.0000 -9545.9424
v  -9237.7813 54000.0000 -3490.1411
# 20 vertices

vn 0.0000 1.0000 -0.0000
# 1 vertex normals

vt 0.3631 0.5455 0.0000
vt 0.3727 0.5565 0.0000
vt 0.3108 0.6322 0.0000
vt 0.3011 0.6211 0.0000
vt 0.3966 0.5839 0.0000
vt 0.3347 0.6595 0.0000
vt 0.4656 0.6848 0.0000
vt 0.4171 0.5926 0.0000
vt 0.5130 0.7026 0.0000
vt 0.4036 0.7605 0.0000
vt 0.4201 0.8161 0.0000
vt 0.3241 0.7061 0.0000
vt 0.3396 0.6872 0.0000
vt 0.4016 0.6116 0.0000
vt 0.3982 0.5751 0.0000
vt 0.4287 0.6100 0.0000
vt 0.3667 0.6857 0.0000
vt 0.3362 0.6508 0.0000
# 18 texture coords

g Componente_6_001
usemtl wire_143224087
s off
f 17/26/9 18/27/9 19/28/9 20/29/9 
f 21/27/9 22/30/9 23/31/9 24/28/9 
f 25/32/9 26/33/9 27/34/9 28/35/9 
f 28/35/9 27/34/9 29/36/9 30/37/9 
f 28/35/9 30/37/9 31/38/9 
f 26/33/9 25/32/9 32/39/9 
f 33/40/9 34/41/9 35/42/9 36/43/9 
# 5 polygons - 2 triangles

#
# object Componente_4_002
#

v  -0.0054 6000.0000 19091.8848
v  -19091.8867 6000.0000 0.0010
v  -19091.8867 -0.0000 -0.0010
v  -0.0029 0.0000 19091.8828
# 4 vertices

vn -0.7071 -0.0000 0.7071
# 1 vertex normals

vt 0.2080 -1.5096 0.0000
vt 0.2080 -1.1154 0.0000
vt -0.0255 -1.1154 0.0000
vt -0.0255 -1.5096 0.0000
# 4 texture coords

g Componente_4_002
usemtl wire_229166215
s off
f 37/44/10 38/45/10 39/46/10 40/47/10 
# 1 polygons

#
# object Componente_4_001
#

v  -0.0015 6000.0000 -19091.8848
v  19091.8848 6000.0000 -0.0049
v  19091.8828 -0.0000 -0.0029
v  -0.0039 0.0000 -19091.8828
# 4 vertices

vn 0.7071 -0.0000 -0.7071
# 1 vertex normals

vt 0.2080 -1.5096 0.0000
vt 0.2080 -1.1154 0.0000
vt -0.0255 -1.1154 0.0000
vt -0.0255 -1.5096 0.0000
# 4 texture coords

g Componente_4_001
usemtl wire_087224198
s off
f 41/48/11 42/49/11 43/50/11 44/51/11 
# 1 polygons

#
# object Componente_3_001
#

v  9545.9395 6000.0000 3181.9849
v  -3181.9824 6000.0000 -9545.9375
v  -3181.9824 54000.0000 -9545.9375
v  9545.9395 54000.0000 3181.9849
# 4 vertices

vn 0.7071 0.0000 -0.7071
# 1 vertex normals

vt 3.0019 -0.0083 0.0000
vt 4.0019 -0.0083 0.0000
vt 4.0019 0.9917 0.0000
vt 3.0019 0.9917 0.0000
# 4 texture coords

g Componente_3_001
usemtl wire_229166215
s off
f 45/52/12 46/53/12 47/54/12 48/55/12 
# 1 polygons

#
# object Componente_2_002
#

v  3490.1465 51975.0000 9237.7715
v  3490.1470 54000.0000 9237.7705
v  9545.9492 53999.9922 3181.9668
v  9545.9473 50999.9922 3181.9688
v  -1266.1263 51000.0078 13994.0459
v  -1266.1260 51975.0078 13994.0449
v  -1266.1349 29421.9570 13994.0547
v  9545.9297 5999.9956 3181.9863
v  -3181.9902 6000.0059 15909.9102
v  -3181.9810 29421.9590 15909.9004
# 10 vertices

vn 0.7071 -0.0000 0.7071
# 1 vertex normals

vt -3.4847 0.9380 0.0000
vt -3.4835 0.9785 0.0000
vt -3.0068 0.9994 0.0000
vt -3.0068 0.9380 0.0000
vt -3.8472 0.9035 0.0000
vt -3.8462 0.9228 0.0000
vt -3.8482 0.4791 0.0000
vt -3.8455 0.9166 0.0000
vt -3.0176 0.9359 0.0000
vt -3.0201 0.0022 0.0000
vt -3.9946 0.0025 0.0000
vt -3.9915 0.4774 0.0000
# 12 texture coords

g Componente_2_002
usemtl wire_224086086
s off
f 52/59/13 51/58/13 50/57/13 49/56/13 
f 54/61/13 53/60/13 52/59/13 49/56/13 
f 56/65/13 52/64/13 53/63/13 55/62/13 
f 58/67/13 57/66/13 56/65/13 55/62/13 
# 4 polygons

#
# object Componente_5_001
#

v  -15909.9043 6000.0000 3181.9807
v  -3181.9805 6000.0000 15909.9004
v  -3181.9805 29421.9531 15909.9004
v  -15909.9043 29421.9531 3181.9807
v  -13994.0586 29421.9531 1266.1342
v  -1266.1348 29421.9531 13994.0537
v  -1266.1348 51000.0000 13994.0537
v  -13994.0586 51000.0000 1266.1342
v  -1266.1348 51975.0000 13994.0537
v  -13994.0586 51975.0000 1266.1342
v  -9237.7861 51975.0000 -3490.1399
v  3490.1387 51975.0000 9237.7803
v  3490.1387 54000.0000 9237.7803
v  -9237.7861 54000.0000 -3490.1399
# 14 vertices

vn -0.7071 -0.0000 0.7071
# 1 vertex normals

vt -0.9764 0.0011 0.0000
vt 0.0236 0.0011 0.0000
vt 0.0236 0.4891 0.0000
vt -0.9764 0.4891 0.0000
vt -0.9965 0.4361 0.0000
vt 0.0035 0.4361 0.0000
vt 0.0035 0.8857 0.0000
vt -0.9965 0.8857 0.0000
vt 0.0035 0.9060 0.0000
vt -0.9965 0.9060 0.0000
vt -0.7573 0.9568 0.0000
vt -0.1312 0.9568 0.0000
vt -0.1312 0.9832 0.0000
vt -0.7573 0.9832 0.0000
# 14 texture coords

g Componente_5_001
usemtl wire_143224087
s off
f 59/68/14 60/69/14 61/70/14 62/71/14 
f 63/72/14 64/73/14 65/74/14 66/75/14 
f 66/75/14 65/74/14 67/76/14 68/77/14 
f 69/78/14 70/79/14 71/80/14 72/81/14 
# 4 polygons

#
# object Componente_2_001
#

v  -9237.7881 51975.0000 -3490.1406
v  -9237.7881 54000.0000 -3490.1406
v  -3181.9863 54000.0000 -9545.9434
v  -3181.9863 51000.0000 -9545.9434
v  -13994.0605 51000.0000 1266.1334
v  -13994.0605 51975.0000 1266.1334
v  -13994.0605 29421.9531 1266.1334
v  -3181.9863 6000.0000 -9545.9434
v  -15909.9063 6000.0000 3181.9800
v  -15909.9063 29421.9531 3181.9800
# 10 vertices

vn -0.7071 0.0000 -0.7071
# 1 vertex normals

vt -3.4847 0.9380 0.0000
vt -3.4835 0.9785 0.0000
vt -3.0068 0.9994 0.0000
vt -3.0068 0.9380 0.0000
vt -3.8472 0.9035 0.0000
vt -3.8462 0.9228 0.0000
vt -3.8482 0.4791 0.0000
vt -3.8455 0.9166 0.0000
vt -3.0176 0.9359 0.0000
vt -3.0201 0.0022 0.0000
vt -3.9946 0.0025 0.0000
vt -3.9915 0.4774 0.0000
# 12 texture coords

g Componente_2_001
usemtl wire_006134006
s off
f 73/82/15 74/83/15 75/84/15 76/85/15 
f 73/82/15 76/85/15 77/86/15 78/87/15 
f 79/88/15 77/89/15 76/90/15 80/91/15 
f 79/88/15 80/91/15 81/92/15 82/93/15 
# 4 polygons

